<mxfile host="65bd71144e">
    <diagram id="Wedb5rCMLmeZZoqzoi4l" name="Page-1">
        <mxGraphModel dx="1058" dy="773" grid="1" gridSize="10" guides="1" tooltips="1" connect="1" arrows="1" fold="1" page="1" pageScale="1" pageWidth="850" pageHeight="1100" math="0" shadow="0">
            <root>
                <mxCell id="0"/>
                <mxCell id="1" parent="0"/>
                <mxCell id="46" value="Người dùng" style="shape=umlActor;verticalLabelPosition=bottom;verticalAlign=top;html=1;outlineConnect=0;" vertex="1" parent="1">
                    <mxGeometry x="30" y="90" width="30" height="60" as="geometry"/>
                </mxCell>
                <mxCell id="47" value="Web App" style="rounded=0;whiteSpace=wrap;html=1;" vertex="1" parent="1">
                    <mxGeometry x="120" y="100" width="90" height="60" as="geometry"/>
                </mxCell>
                <mxCell id="48" value="API Server" style="rounded=0;whiteSpace=wrap;html=1;" vertex="1" parent="1">
                    <mxGeometry x="320" y="100" width="90" height="60" as="geometry"/>
                </mxCell>
                <mxCell id="49" value="Service" style="rounded=0;whiteSpace=wrap;html=1;" vertex="1" parent="1">
                    <mxGeometry x="510" y="100" width="90" height="60" as="geometry"/>
                </mxCell>
                <mxCell id="50" value="" style="fontStyle=1;rotation=90;" vertex="1" parent="1">
                    <mxGeometry x="-206.94" y="423.2" width="503.89" height="10" as="geometry"/>
                </mxCell>
                <mxCell id="51" value="" style="endArrow=none;dashed=1;html=1;dashPattern=1 3;strokeWidth=2;" edge="1" parent="1">
                    <mxGeometry width="50" height="50" relative="1" as="geometry">
                        <mxPoint x="160" y="210" as="sourcePoint"/>
                        <mxPoint x="160" y="170" as="targetPoint"/>
                        <Array as="points">
                            <mxPoint x="160" y="180"/>
                        </Array>
                    </mxGeometry>
                </mxCell>
                <mxCell id="52" value="" style="fontStyle=1;rotation=90;" vertex="1" parent="1">
                    <mxGeometry x="-90.93" y="420.93" width="500.63" height="10" as="geometry"/>
                </mxCell>
                <mxCell id="53" value="" style="endArrow=classic;html=1;" edge="1" parent="1">
                    <mxGeometry width="50" height="50" relative="1" as="geometry">
                        <mxPoint x="60" y="210" as="sourcePoint"/>
                        <mxPoint x="140" y="210" as="targetPoint"/>
                    </mxGeometry>
                </mxCell>
                <mxCell id="54" value="1. Yêu cầu&amp;nbsp;&lt;br&gt;thêm giáo viên" style="text;html=1;align=center;verticalAlign=middle;resizable=0;points=[];autosize=1;strokeColor=none;fillColor=none;" vertex="1" parent="1">
                    <mxGeometry x="55" y="170" width="100" height="40" as="geometry"/>
                </mxCell>
                <mxCell id="55" value="" style="endArrow=none;dashed=1;html=1;dashPattern=1 3;strokeWidth=2;" edge="1" parent="1">
                    <mxGeometry width="50" height="50" relative="1" as="geometry">
                        <mxPoint x="364.8699999999999" y="320" as="sourcePoint"/>
                        <mxPoint x="364.5" y="170" as="targetPoint"/>
                        <Array as="points"/>
                    </mxGeometry>
                </mxCell>
                <mxCell id="56" value="" style="endArrow=classic;html=1;" edge="1" parent="1">
                    <mxGeometry x="-0.1818" y="-20" width="50" height="50" relative="1" as="geometry">
                        <mxPoint x="180" y="230" as="sourcePoint"/>
                        <mxPoint x="180" y="270" as="targetPoint"/>
                        <Array as="points">
                            <mxPoint x="270" y="230"/>
                            <mxPoint x="270" y="270"/>
                        </Array>
                        <mxPoint x="20" y="-20" as="offset"/>
                    </mxGeometry>
                </mxCell>
                <mxCell id="57" value="2. Trả về màn&amp;nbsp;&lt;br&gt;thêm giáo viên" style="text;html=1;align=center;verticalAlign=middle;resizable=0;points=[];autosize=1;strokeColor=none;fillColor=none;" vertex="1" parent="1">
                    <mxGeometry x="170" y="180" width="100" height="40" as="geometry"/>
                </mxCell>
                <mxCell id="58" value="" style="endArrow=classic;html=1;" edge="1" parent="1">
                    <mxGeometry width="50" height="50" relative="1" as="geometry">
                        <mxPoint x="60" y="320" as="sourcePoint"/>
                        <mxPoint x="140" y="320" as="targetPoint"/>
                    </mxGeometry>
                </mxCell>
                <mxCell id="59" value="3. Điền thông tin" style="edgeLabel;html=1;align=center;verticalAlign=middle;resizable=0;points=[];" vertex="1" connectable="0" parent="58">
                    <mxGeometry x="-0.3" y="1" relative="1" as="geometry">
                        <mxPoint x="12" y="-19" as="offset"/>
                    </mxGeometry>
                </mxCell>
                <mxCell id="60" value="" style="endArrow=classic;html=1;" edge="1" parent="1">
                    <mxGeometry width="50" height="50" relative="1" as="geometry">
                        <mxPoint x="180" y="330" as="sourcePoint"/>
                        <mxPoint x="340" y="330" as="targetPoint"/>
                    </mxGeometry>
                </mxCell>
                <mxCell id="61" value="4. Gửi HTTP POST&lt;br&gt;request add/giaovien" style="edgeLabel;html=1;align=center;verticalAlign=middle;resizable=0;points=[];" vertex="1" connectable="0" parent="60">
                    <mxGeometry x="-0.3" y="1" relative="1" as="geometry">
                        <mxPoint x="22" y="-29" as="offset"/>
                    </mxGeometry>
                </mxCell>
                <mxCell id="62" value="" style="fontStyle=1;rotation=90;" vertex="1" parent="1">
                    <mxGeometry x="253.29" y="431.88" width="223.43" height="10" as="geometry"/>
                </mxCell>
                <mxCell id="63" value="" style="endArrow=none;dashed=1;html=1;dashPattern=1 3;strokeWidth=2;" edge="1" parent="1">
                    <mxGeometry width="50" height="50" relative="1" as="geometry">
                        <mxPoint x="555" y="330" as="sourcePoint"/>
                        <mxPoint x="554.5" y="170" as="targetPoint"/>
                        <Array as="points">
                            <mxPoint x="554.5" y="230"/>
                        </Array>
                    </mxGeometry>
                </mxCell>
                <mxCell id="64" value="" style="fontStyle=1;rotation=90;" vertex="1" parent="1">
                    <mxGeometry x="468.11" y="421.9" width="173.79" height="10" as="geometry"/>
                </mxCell>
                <mxCell id="65" value="" style="endArrow=classic;html=1;" edge="1" parent="1">
                    <mxGeometry width="50" height="50" relative="1" as="geometry">
                        <mxPoint x="380" y="340" as="sourcePoint"/>
                        <mxPoint x="510" y="340" as="targetPoint"/>
                        <Array as="points">
                            <mxPoint x="450" y="340"/>
                        </Array>
                    </mxGeometry>
                </mxCell>
                <mxCell id="66" value="5. Verify JWT và role_id" style="edgeLabel;html=1;align=center;verticalAlign=middle;resizable=0;points=[];" vertex="1" connectable="0" parent="65">
                    <mxGeometry x="-0.3" y="1" relative="1" as="geometry">
                        <mxPoint x="4" y="-19" as="offset"/>
                    </mxGeometry>
                </mxCell>
                <mxCell id="67" value="" style="endArrow=none;dashed=1;html=1;dashPattern=1 3;strokeWidth=2;" edge="1" parent="1">
                    <mxGeometry width="50" height="50" relative="1" as="geometry">
                        <mxPoint x="555" y="680" as="sourcePoint"/>
                        <mxPoint x="555" y="520" as="targetPoint"/>
                        <Array as="points">
                            <mxPoint x="554.5" y="550"/>
                        </Array>
                    </mxGeometry>
                </mxCell>
                <mxCell id="70" value="7.1 Thêm thông tin&amp;nbsp;&lt;br&gt;giáo viên vào DB" style="endArrow=classic;html=1;" edge="1" parent="1">
                    <mxGeometry x="-0.4286" y="25" width="50" height="50" relative="1" as="geometry">
                        <mxPoint x="740" y="416.88" as="sourcePoint"/>
                        <mxPoint x="740" y="456.88" as="targetPoint"/>
                        <Array as="points">
                            <mxPoint x="790" y="416.88"/>
                            <mxPoint x="790" y="456.88"/>
                        </Array>
                        <mxPoint as="offset"/>
                    </mxGeometry>
                </mxCell>
                <mxCell id="71" value="" style="endArrow=none;dashed=1;html=1;dashPattern=1 3;strokeWidth=2;" edge="1" parent="1">
                    <mxGeometry width="50" height="50" relative="1" as="geometry">
                        <mxPoint x="365" y="680" as="sourcePoint"/>
                        <mxPoint x="364.5" y="560" as="targetPoint"/>
                        <Array as="points"/>
                    </mxGeometry>
                </mxCell>
                <mxCell id="72" value="" style="endArrow=classic;html=1;" edge="1" parent="1">
                    <mxGeometry width="50" height="50" relative="1" as="geometry">
                        <mxPoint x="350" y="418" as="sourcePoint"/>
                        <mxPoint x="220" y="417.6" as="targetPoint"/>
                    </mxGeometry>
                </mxCell>
                <mxCell id="73" value="7.2 Thông báo lỗi 401&lt;br&gt;Unauthorized" style="edgeLabel;html=1;align=center;verticalAlign=middle;resizable=0;points=[];" vertex="1" connectable="0" parent="72">
                    <mxGeometry x="-0.3" y="1" relative="1" as="geometry">
                        <mxPoint x="-28" y="-32" as="offset"/>
                    </mxGeometry>
                </mxCell>
                <mxCell id="74" value="DB" style="rounded=0;whiteSpace=wrap;html=1;" vertex="1" parent="1">
                    <mxGeometry x="660" y="100" width="90" height="60" as="geometry"/>
                </mxCell>
                <mxCell id="75" value="" style="endArrow=none;dashed=1;html=1;dashPattern=1 3;strokeWidth=2;" edge="1" parent="1">
                    <mxGeometry width="50" height="50" relative="1" as="geometry">
                        <mxPoint x="705" y="370" as="sourcePoint"/>
                        <mxPoint x="704.5" y="170" as="targetPoint"/>
                        <Array as="points">
                            <mxPoint x="704.5" y="230"/>
                        </Array>
                    </mxGeometry>
                </mxCell>
                <mxCell id="76" value="" style="fontStyle=1;rotation=90;" vertex="1" parent="1">
                    <mxGeometry x="655.6" y="421.88" width="98.8" height="10" as="geometry"/>
                </mxCell>
                <mxCell id="78" value="6.1&amp;nbsp; Jwt và role_id&lt;br&gt;&amp;nbsp;Hợp lệ," style="text;html=1;align=center;verticalAlign=middle;resizable=0;points=[];autosize=1;strokeColor=none;fillColor=none;" vertex="1" parent="1">
                    <mxGeometry x="570" y="340" width="120" height="40" as="geometry"/>
                </mxCell>
                <mxCell id="79" value="" style="endArrow=none;dashed=1;html=1;dashPattern=1 3;strokeWidth=2;" edge="1" parent="1">
                    <mxGeometry width="50" height="50" relative="1" as="geometry">
                        <mxPoint x="705" y="680" as="sourcePoint"/>
                        <mxPoint x="705" y="480" as="targetPoint"/>
                        <Array as="points"/>
                    </mxGeometry>
                </mxCell>
                <mxCell id="80" value="" style="endArrow=classic;html=1;dashed=1;" edge="1" parent="1">
                    <mxGeometry width="50" height="50" relative="1" as="geometry">
                        <mxPoint x="550" y="520" as="sourcePoint"/>
                        <mxPoint x="390" y="520" as="targetPoint"/>
                        <Array as="points">
                            <mxPoint x="480" y="520"/>
                        </Array>
                    </mxGeometry>
                </mxCell>
                <mxCell id="81" value="8. Thông báo thành&lt;br&gt;công hoặc thất&lt;br&gt;bại" style="edgeLabel;html=1;align=center;verticalAlign=middle;resizable=0;points=[];" vertex="1" connectable="0" parent="80">
                    <mxGeometry x="0.5391" y="-3" relative="1" as="geometry">
                        <mxPoint x="33" y="-27" as="offset"/>
                    </mxGeometry>
                </mxCell>
                <mxCell id="82" value="" style="endArrow=classic;html=1;dashed=1;" edge="1" parent="1">
                    <mxGeometry width="50" height="50" relative="1" as="geometry">
                        <mxPoint x="363.91" y="550" as="sourcePoint"/>
                        <mxPoint x="180" y="550" as="targetPoint"/>
                        <Array as="points">
                            <mxPoint x="293.91" y="550"/>
                        </Array>
                    </mxGeometry>
                </mxCell>
                <mxCell id="83" value="9. Thông báo thành&lt;br&gt;công hoặc thất&lt;br&gt;bại" style="edgeLabel;html=1;align=center;verticalAlign=middle;resizable=0;points=[];" vertex="1" connectable="0" parent="82">
                    <mxGeometry x="0.5391" y="-3" relative="1" as="geometry">
                        <mxPoint x="38" y="-37" as="offset"/>
                    </mxGeometry>
                </mxCell>
                <mxCell id="84" value="" style="endArrow=classic;html=1;" edge="1" parent="1">
                    <mxGeometry width="50" height="50" relative="1" as="geometry">
                        <mxPoint x="545" y="407.6000000000002" as="sourcePoint"/>
                        <mxPoint x="425" y="407.6000000000002" as="targetPoint"/>
                    </mxGeometry>
                </mxCell>
                <mxCell id="85" value="6.2. Jwt hoặc role_id&lt;br&gt;&amp;nbsp;không hợp lệ" style="edgeLabel;html=1;align=center;verticalAlign=middle;resizable=0;points=[];" vertex="1" connectable="0" parent="84">
                    <mxGeometry x="-0.3" y="1" relative="1" as="geometry">
                        <mxPoint x="-28" y="-32" as="offset"/>
                    </mxGeometry>
                </mxCell>
                <mxCell id="94" value="" style="endArrow=classic;html=1;" edge="1" parent="1">
                    <mxGeometry width="50" height="50" relative="1" as="geometry">
                        <mxPoint x="580" y="380" as="sourcePoint"/>
                        <mxPoint x="680" y="380" as="targetPoint"/>
                    </mxGeometry>
                </mxCell>
            </root>
        </mxGraphModel>
    </diagram>
</mxfile>